<svg width="304" height="256" viewBox="0 0 304 256" fill="none" xmlns="http://www.w3.org/2000/svg">
<path opacity="0.2" d="M280.184 0H24.1659V256H280.184V0Z" fill="#59F0C7"/>
<path opacity="0.5" d="M241.309 23.9015H62.6912V232.449H241.309V23.9015Z" fill="#59F0C7"/>
<path d="M304 36.7715H208.387V220.629H304V36.7715Z" fill="url(#paint0_linear)"/>
<path d="M95.6129 37.472H0V221.33H95.6129V37.472Z" fill="url(#paint1_linear)"/>
<path d="M300.848 39.5732H211.539V216.777H300.848V39.5732Z" fill="#59F0C7"/>
<path d="M3.15208 216.777H92.4608L92.4608 39.5732H3.15208L3.15208 216.777Z" fill="#59F0C7"/>
<path d="M77.7512 55.6826H17.8618V66.539H77.7512V55.6826Z" fill="url(#paint2_linear)"/>
<path d="M286.488 72.1423H226.599V82.9986H286.488V72.1423Z" fill="url(#paint3_linear)"/>
<path d="M286.138 88.9521H226.249V99.8085H286.138V88.9521Z" fill="url(#paint4_linear)"/>
<path d="M286.138 105.762H226.249V116.618H286.138V105.762Z" fill="url(#paint5_linear)"/>
<path d="M286.138 122.572H226.249V133.428H286.138V122.572Z" fill="url(#paint6_linear)"/>
<path d="M286.138 139.382H226.249V150.238H286.138V139.382Z" fill="url(#paint7_linear)"/>
<path d="M286.138 156.192H226.249V167.048H286.138V156.192Z" fill="url(#paint8_linear)"/>
<path d="M286.138 173.001H226.249V183.858H286.138V173.001Z" fill="url(#paint9_linear)"/>
<path d="M286.138 189.811H226.249V200.668H286.138V189.811Z" fill="url(#paint10_linear)"/>
<path d="M286.138 55.6826H226.249V66.539H286.138V55.6826Z" fill="url(#paint11_linear)"/>
<path d="M77.7512 72.8427H17.8618V83.699H77.7512V72.8427Z" fill="url(#paint12_linear)"/>
<path d="M77.7512 89.3023H17.8618V100.159H77.7512V89.3023Z" fill="url(#paint13_linear)"/>
<path d="M77.7512 105.762H17.8618V116.618H77.7512V105.762Z" fill="url(#paint14_linear)"/>
<path d="M77.7512 122.572H17.8618V133.428H77.7512V122.572Z" fill="url(#paint15_linear)"/>
<path d="M77.7512 139.382H17.8618V150.238H77.7512V139.382Z" fill="url(#paint16_linear)"/>
<path d="M76.7005 57.0834H19.2627V65.4884H76.7005V57.0834Z" fill="white"/>
<path d="M76.5253 73.5431H19.0876V81.948H76.5253V73.5431Z" fill="white"/>
<path d="M76.5253 90.3529H19.0876V98.7579H76.5253V90.3529Z" fill="white"/>
<path d="M76.5253 107.163H19.0876V115.568H76.5253V107.163Z" fill="white"/>
<path d="M76.5253 123.973H19.0876V132.378H76.5253V123.973Z" fill="white"/>
<path d="M76.5253 140.782H19.0876V149.187H76.5253V140.782Z" fill="white"/>
<path d="M77.7512 156.192H17.8618V167.048H77.7512V156.192Z" fill="url(#paint17_linear)"/>
<path d="M76.5253 157.592H19.0876V165.997H76.5253V157.592Z" fill="white"/>
<path d="M76.5253 157.592H19.0876V165.997H76.5253V157.592Z" fill="white"/>
<path d="M76.5253 174.402H19.0876V182.807H76.5253V174.402Z" fill="white"/>
<path d="M76.5253 191.212H19.0876V199.617H76.5253V191.212Z" fill="white"/>
<path d="M285.088 56.7332H227.65V65.1382H285.088V56.7332Z" fill="white"/>
<path d="M285.088 73.5431H227.65V81.948H285.088V73.5431Z" fill="white"/>
<path d="M285.088 90.3529H227.65V98.7579H285.088V90.3529Z" fill="white"/>
<path d="M285.088 107.163H227.65V115.568H285.088V107.163Z" fill="white"/>
<path d="M285.088 123.973H227.65V132.378H285.088V123.973Z" fill="white"/>
<path d="M285.088 140.782H227.65V149.187H285.088V140.782Z" fill="white"/>
<path d="M285.088 157.592H227.65V165.997H285.088V157.592Z" fill="white"/>
<path d="M285.088 174.402H227.65V182.807H285.088V174.402Z" fill="white"/>
<path d="M285.088 191.212H227.65V199.617H285.088V191.212Z" fill="white"/>
<path d="M257.419 225.882H46.2304V239.19H257.419V225.882Z" fill="url(#paint18_linear)"/>
<path d="M256.018 227.283H47.9816V237.789H256.018V227.283Z" fill="#59F0C7"/>
<path d="M257.77 17.5103H46.9309V31.1683H257.77V17.5103Z" fill="url(#paint19_linear)"/>
<path d="M256.018 18.5609H47.9816V29.067H256.018V18.5609Z" fill="#59F0C7"/>
<path opacity="0.5" d="M203.484 39.5732H101.217V216.777H203.484V39.5732Z" fill="#263238"/>
<path d="M231.033 116.636C233.485 119.921 229.814 123.801 229.814 123.801L230.431 124.015C229.524 125.02 225.941 129.555 212.128 150.07C194.441 176.335 170.608 182.888 170.608 182.888C167.712 180.625 164.418 178.926 160.896 177.876V175.397C165.396 174.07 169.508 171.673 172.881 168.411C176.254 165.15 178.787 161.121 180.264 156.668C182.372 152.494 183.469 147.882 183.465 143.206C183.465 126.396 169.536 112.759 152.357 112.759C135.178 112.759 121.25 126.393 121.25 143.206C121.246 147.882 122.342 152.494 124.451 156.668C125.928 161.121 128.461 165.15 131.834 168.411C135.206 171.673 139.318 174.07 143.819 175.397V177.876C140.297 178.926 137.003 180.625 134.107 182.888C134.107 182.888 110.263 176.328 92.5764 150.063C78.7633 129.548 75.1805 125.009 74.2734 124.008L74.8898 123.794C74.8898 123.794 71.2299 119.914 73.671 116.629C76.1121 113.344 57.5078 109.464 59.6407 116.629C61.7736 123.794 64.5195 127.377 64.5195 127.377C64.5195 127.377 103.465 188.796 123.796 198.945C123.316 201.026 123.074 203.155 123.074 205.29V217.232H181.626V205.29C181.627 203.155 181.385 201.026 180.905 198.945C201.218 188.789 240.181 127.38 240.181 127.38C240.181 127.38 242.927 123.798 245.06 116.632C247.193 109.467 228.592 113.351 231.033 116.636Z" fill="url(#paint20_linear)"/>
<path d="M152.35 174.588C168.803 174.588 182.141 161.251 182.141 144.799C182.141 128.348 168.803 115.011 152.35 115.011C135.897 115.011 122.56 128.348 122.56 144.799C122.56 161.251 135.897 174.588 152.35 174.588Z" fill="#263238"/>
<path d="M152.35 177.512C167.836 177.512 180.39 164.959 180.39 149.475C180.39 133.99 167.836 121.437 152.35 121.437C136.864 121.437 124.311 133.99 124.311 149.475C124.311 164.959 136.864 177.512 152.35 177.512Z" fill="#F8C198"/>
<path d="M141.251 146.845C143.188 146.845 144.757 145.275 144.757 143.339C144.757 141.403 143.188 139.833 141.251 139.833C139.315 139.833 137.746 141.403 137.746 143.339C137.746 145.275 139.315 146.845 141.251 146.845Z" fill="#263238"/>
<path d="M164.034 146.845C165.97 146.845 167.54 145.275 167.54 143.339C167.54 141.403 165.97 139.833 164.034 139.833C162.098 139.833 160.528 141.403 160.528 143.339C160.528 145.275 162.098 146.845 164.034 146.845Z" fill="#263238"/>
<path d="M160.528 162.32C160.528 164.421 156.868 167.871 152.35 167.871C147.832 167.871 144.172 164.421 144.172 162.32C144.172 160.219 147.832 160.275 152.35 160.275C156.868 160.275 160.528 160.219 160.528 162.32Z" fill="white"/>
<path d="M142.127 144.509C142.773 144.509 143.297 143.985 143.297 143.339C143.297 142.693 142.773 142.169 142.127 142.169C141.481 142.169 140.957 142.693 140.957 143.339C140.957 143.985 141.481 144.509 142.127 144.509Z" fill="white"/>
<path d="M165.2 144.509C165.846 144.509 166.37 143.985 166.37 143.339C166.37 142.693 165.846 142.169 165.2 142.169C164.554 142.169 164.03 142.693 164.03 143.339C164.03 143.985 164.554 144.509 165.2 144.509Z" fill="white"/>
<path d="M155.152 133.911C153.443 133.911 151.909 132.427 151.727 130.728C151.668 129.874 151.871 129.023 152.309 128.287C152.747 127.552 153.399 126.968 154.178 126.613C154.338 126.531 154.514 126.485 154.693 126.48C155.282 126.48 155.572 127.181 155.761 127.737C156.35 129.46 157.394 131.141 159.033 131.94C160.672 132.738 162.962 132.329 163.827 130.725C161.509 129.691 160.518 126.449 161.866 124.298C162.388 123.468 163.2 122.764 163.365 121.798C163.666 120.047 161.747 118.772 160.048 118.247C155.145 116.73 138.054 116.562 137.112 123.878C136.124 131.597 149.769 134.934 155.152 133.911Z" fill="#263238"/>
<path d="M127.297 154.393C128.197 154.038 128.11 151.682 127.103 149.131C126.097 146.58 124.551 144.799 123.652 145.154C122.752 145.509 122.839 147.865 123.845 150.416C124.852 152.968 126.397 154.748 127.297 154.393Z" fill="#F8C198"/>
<path d="M180.847 150.398C181.853 147.847 181.94 145.491 181.04 145.136C180.141 144.781 178.595 146.561 177.589 149.113C176.582 151.664 176.496 154.02 177.395 154.375C178.295 154.73 179.84 152.949 180.847 150.398Z" fill="#F8C198"/>
<path d="M169.83 183.627C169.83 183.627 192.655 177.218 209.595 151.516C226.536 125.815 227.412 125.745 227.412 125.745L236.465 129.32C236.465 129.32 194.409 197.078 176.302 200.584C158.196 204.089 169.83 183.627 169.83 183.627Z" fill="#FF9800"/>
<path d="M226.54 125.818C226.54 125.818 230.042 122.022 227.709 118.814C225.377 115.606 243.189 111.81 241.144 118.814C239.099 125.818 236.472 129.32 236.472 129.32L226.54 125.818Z" fill="#F8C198"/>
<path d="M134.87 183.627C134.87 183.627 112.046 177.218 95.1051 151.516C78.1644 125.815 77.2888 125.745 77.2888 125.745L68.2354 129.32C68.2354 129.32 110.295 197.078 128.405 200.584C146.515 204.089 134.87 183.627 134.87 183.627Z" fill="#FF9800"/>
<path d="M78.1609 125.818C78.1609 125.818 74.6586 122.022 76.9911 118.814C79.3237 115.606 61.511 111.81 63.5563 118.814C65.6017 125.818 68.2284 129.32 68.2284 129.32L78.1609 125.818Z" fill="#F8C198"/>
<g opacity="0.2">
<path opacity="0.2" d="M161.908 120.04C161.74 121.006 160.927 121.707 160.409 122.54C159.229 124.424 159.842 127.149 161.572 128.494C161.323 127.863 161.221 127.185 161.272 126.509C161.324 125.833 161.528 125.178 161.869 124.592C162.391 123.763 163.204 123.059 163.368 122.092C163.558 120.996 162.875 120.085 161.922 119.43C161.947 119.633 161.942 119.838 161.908 120.04Z" fill="white"/>
<path opacity="0.2" d="M154.613 126.778C154.501 126.515 154.396 126.249 154.305 125.983C154.115 125.426 153.825 124.743 153.236 124.726C153.057 124.731 152.881 124.776 152.721 124.859C151.942 125.213 151.29 125.797 150.852 126.533C150.414 127.268 150.211 128.12 150.27 128.974C150.335 129.489 150.508 129.984 150.778 130.428C151.048 130.871 151.408 131.253 151.835 131.548C151.786 131.374 151.751 131.198 151.73 131.019C151.671 130.165 151.874 129.313 152.312 128.578C152.751 127.843 153.403 127.258 154.182 126.904C154.318 126.838 154.463 126.796 154.613 126.778Z" fill="white"/>
<path opacity="0.2" d="M152.144 132.325C147.885 132.504 141.013 130.879 137.627 127.422C140.155 132.801 150.603 135.053 155.138 134.188C154.519 134.167 153.917 133.984 153.391 133.657C152.866 133.33 152.436 132.871 152.144 132.325Z" fill="white"/>
<path opacity="0.2" d="M162.045 129.439C161.022 130.641 159.04 130.893 157.579 130.182C157.102 129.947 156.665 129.638 156.283 129.268C156.849 130.531 157.819 131.571 159.04 132.223C160.679 133.018 162.969 132.612 163.834 131.008C163.098 130.671 162.476 130.125 162.045 129.439Z" fill="white"/>
</g>
<path opacity="0.2" d="M235.302 129.32C235.302 129.32 193.243 197.078 175.115 200.584C174.068 200.793 173.006 200.923 171.939 200.972C173.398 201.014 174.857 200.883 176.285 200.584C194.395 197.081 236.455 129.32 236.455 129.32L235.516 128.988C235.386 129.208 235.302 129.32 235.302 129.32Z" fill="white"/>
<path opacity="0.2" d="M69.3981 129.32C69.3981 129.32 111.457 197.078 129.585 200.584C130.633 200.793 131.695 200.923 132.762 200.972C131.303 201.014 129.844 200.883 128.415 200.584C110.305 197.081 68.2459 129.32 68.2459 129.32L69.1845 128.988C69.3141 129.208 69.3981 129.32 69.3981 129.32Z" fill="white"/>
<path d="M152.35 177.512C156.032 177.512 159.679 178.237 163.08 179.646C166.482 181.055 169.573 183.12 172.177 185.724C174.781 188.328 176.846 191.418 178.255 194.82C179.664 198.222 180.39 201.868 180.39 205.549V217.232H124.311V205.549C124.311 201.868 125.036 198.222 126.445 194.82C127.854 191.418 129.92 188.328 132.523 185.724C135.127 183.12 138.218 181.055 141.62 179.646C145.022 178.237 148.668 177.512 152.35 177.512Z" fill="#FF9800"/>
<path opacity="0.2" d="M152.641 177.659C151.621 177.659 150.601 177.714 149.587 177.824C149.937 177.824 150.256 177.803 150.596 177.803C158.032 177.803 165.164 180.757 170.422 186.015C175.681 191.273 178.635 198.404 178.635 205.84V217.376H180.68V205.697C180.68 198.261 177.726 191.129 172.468 185.871C167.209 180.613 160.077 177.659 152.641 177.659Z" fill="white"/>
<path opacity="0.2" d="M152.06 177.659C153.08 177.659 154.099 177.714 155.114 177.824C154.763 177.824 154.445 177.803 154.105 177.803C146.668 177.803 139.536 180.757 134.278 186.015C129.02 191.273 126.065 198.404 126.065 205.84V217.376H124.02V205.697C124.02 198.261 126.974 191.129 132.233 185.871C137.491 180.613 144.623 177.659 152.06 177.659Z" fill="white"/>
<path d="M160.528 177.95C160.528 173.434 156.867 169.772 152.35 169.772C147.834 169.772 144.172 173.434 144.172 177.95V181.308C144.172 185.824 147.834 189.486 152.35 189.486C156.867 189.486 160.528 185.824 160.528 181.308V177.95Z" fill="#F8C198"/>
<defs>
<linearGradient id="paint0_linear" x1="256.194" y1="220.629" x2="256.194" y2="36.7715" gradientUnits="userSpaceOnUse">
<stop stop-color="#808080" stop-opacity="0.25"/>
<stop offset="0.54" stop-color="#808080" stop-opacity="0.12"/>
<stop offset="1" stop-color="#808080" stop-opacity="0.1"/>
</linearGradient>
<linearGradient id="paint1_linear" x1="13051.2" y1="116236" x2="13051.2" y2="19710.2" gradientUnits="userSpaceOnUse">
<stop stop-color="#808080" stop-opacity="0.25"/>
<stop offset="0.54" stop-color="#808080" stop-opacity="0.12"/>
<stop offset="1" stop-color="#808080" stop-opacity="0.1"/>
</linearGradient>
<linearGradient id="paint2_linear" x1="47.8065" y1="66.539" x2="47.8065" y2="55.6826" gradientUnits="userSpaceOnUse">
<stop stop-opacity="0.12"/>
<stop offset="0.55" stop-opacity="0.09"/>
<stop offset="1" stop-opacity="0.02"/>
</linearGradient>
<linearGradient id="paint3_linear" x1="44095.6" y1="2645.1" x2="44095.6" y2="2308.55" gradientUnits="userSpaceOnUse">
<stop stop-opacity="0.12"/>
<stop offset="0.55" stop-opacity="0.09"/>
<stop offset="1" stop-opacity="0.02"/>
</linearGradient>
<linearGradient id="paint4_linear" x1="44035.3" y1="3183.02" x2="44035.3" y2="2846.47" gradientUnits="userSpaceOnUse">
<stop stop-opacity="0.12"/>
<stop offset="0.55" stop-opacity="0.09"/>
<stop offset="1" stop-opacity="0.02"/>
</linearGradient>
<linearGradient id="paint5_linear" x1="44035.3" y1="3720.93" x2="44035.3" y2="3384.38" gradientUnits="userSpaceOnUse">
<stop stop-opacity="0.12"/>
<stop offset="0.55" stop-opacity="0.09"/>
<stop offset="1" stop-opacity="0.02"/>
</linearGradient>
<linearGradient id="paint6_linear" x1="44035.3" y1="4258.84" x2="44035.3" y2="3922.3" gradientUnits="userSpaceOnUse">
<stop stop-opacity="0.12"/>
<stop offset="0.55" stop-opacity="0.09"/>
<stop offset="1" stop-opacity="0.02"/>
</linearGradient>
<linearGradient id="paint7_linear" x1="44035.3" y1="4796.75" x2="44035.3" y2="4460.2" gradientUnits="userSpaceOnUse">
<stop stop-opacity="0.12"/>
<stop offset="0.55" stop-opacity="0.09"/>
<stop offset="1" stop-opacity="0.02"/>
</linearGradient>
<linearGradient id="paint8_linear" x1="44035.3" y1="5334.67" x2="44035.3" y2="4998.12" gradientUnits="userSpaceOnUse">
<stop stop-opacity="0.12"/>
<stop offset="0.55" stop-opacity="0.09"/>
<stop offset="1" stop-opacity="0.02"/>
</linearGradient>
<linearGradient id="paint9_linear" x1="44035.3" y1="5872.59" x2="44035.3" y2="5536.04" gradientUnits="userSpaceOnUse">
<stop stop-opacity="0.12"/>
<stop offset="0.55" stop-opacity="0.09"/>
<stop offset="1" stop-opacity="0.02"/>
</linearGradient>
<linearGradient id="paint10_linear" x1="44035.3" y1="6410.5" x2="44035.3" y2="6073.96" gradientUnits="userSpaceOnUse">
<stop stop-opacity="0.12"/>
<stop offset="0.55" stop-opacity="0.09"/>
<stop offset="1" stop-opacity="0.02"/>
</linearGradient>
<linearGradient id="paint11_linear" x1="44035.3" y1="55.6826" x2="44035.3" y2="55.6826" gradientUnits="userSpaceOnUse">
<stop stop-opacity="0.12"/>
<stop offset="0.55" stop-opacity="0.09"/>
<stop offset="1" stop-opacity="0.02"/>
</linearGradient>
<linearGradient id="paint12_linear" x1="3072.22" y1="2499.24" x2="13313.3" y2="2499.24" gradientUnits="userSpaceOnUse">
<stop stop-opacity="0.12"/>
<stop offset="0.55" stop-opacity="0.09"/>
<stop offset="1" stop-opacity="0.02"/>
</linearGradient>
<linearGradient id="paint13_linear" x1="3072.22" y1="3025.94" x2="13313.3" y2="3025.94" gradientUnits="userSpaceOnUse">
<stop stop-opacity="0.12"/>
<stop offset="0.55" stop-opacity="0.09"/>
<stop offset="1" stop-opacity="0.02"/>
</linearGradient>
<linearGradient id="paint14_linear" x1="3072.22" y1="3552.66" x2="13313.3" y2="3552.66" gradientUnits="userSpaceOnUse">
<stop stop-opacity="0.12"/>
<stop offset="0.55" stop-opacity="0.09"/>
<stop offset="1" stop-opacity="0.02"/>
</linearGradient>
<linearGradient id="paint15_linear" x1="3072.22" y1="4090.57" x2="13313.3" y2="4090.57" gradientUnits="userSpaceOnUse">
<stop stop-opacity="0.12"/>
<stop offset="0.55" stop-opacity="0.09"/>
<stop offset="1" stop-opacity="0.02"/>
</linearGradient>
<linearGradient id="paint16_linear" x1="3072.22" y1="4628.48" x2="13313.3" y2="4628.48" gradientUnits="userSpaceOnUse">
<stop stop-opacity="0.12"/>
<stop offset="0.55" stop-opacity="0.09"/>
<stop offset="1" stop-opacity="0.02"/>
</linearGradient>
<linearGradient id="paint17_linear" x1="3072.22" y1="5166.39" x2="13313.3" y2="5166.39" gradientUnits="userSpaceOnUse">
<stop stop-opacity="0.12"/>
<stop offset="0.55" stop-opacity="0.09"/>
<stop offset="1" stop-opacity="0.02"/>
</linearGradient>
<linearGradient id="paint18_linear" x1="27923.2" y1="9062.28" x2="155270" y2="9062.28" gradientUnits="userSpaceOnUse">
<stop stop-color="#808080" stop-opacity="0.25"/>
<stop offset="0.54" stop-color="#808080" stop-opacity="0.12"/>
<stop offset="1" stop-color="#808080" stop-opacity="0.1"/>
</linearGradient>
<linearGradient id="paint19_linear" x1="91761.8" y1="1233.07" x2="91761.8" y2="700.41" gradientUnits="userSpaceOnUse">
<stop stop-color="#808080" stop-opacity="0.25"/>
<stop offset="0.54" stop-color="#808080" stop-opacity="0.12"/>
<stop offset="1" stop-color="#808080" stop-opacity="0.1"/>
</linearGradient>
<linearGradient id="paint20_linear" x1="111702" y1="73869.3" x2="111702" y2="42600.2" gradientUnits="userSpaceOnUse">
<stop stop-color="#808080" stop-opacity="0.25"/>
<stop offset="0.54" stop-color="#808080" stop-opacity="0.12"/>
<stop offset="1" stop-color="#808080" stop-opacity="0.1"/>
</linearGradient>
</defs>
</svg>
